<svg xmlns="http://www.w3.org/2000/svg" viewBox="0 0 512 512"><path d="M359.586 145.19c-28.228-26.431-64.86-40.92-103.723-40.885-69.941.061-130.321 48.017-146.992 114.539-1.214 4.842-5.528 8.262-10.52 8.262H46.609c-6.77 0-11.913-6.147-10.661-12.801C55.485 110.557 146.574 32.069 256 32.069c59.999 0 114.486 23.599 154.689 62.019l32.248-32.249c13.652-13.652 36.994-3.983 36.994 15.324v121.048c0 11.969-9.702 21.671-21.671 21.671H337.212c-19.307 0-28.976-23.342-15.324-36.995l37.698-37.697zM53.74 292.118h121.048c19.307 0 28.976 23.342 15.324 36.995l-37.698 37.698c28.228 26.432 64.863 40.92 103.727 40.885 69.904-.063 130.309-47.986 146.988-114.538 1.214-4.842 5.528-8.262 10.52-8.262h51.743c6.77 0 11.913 6.147 10.661 12.8C456.515 401.443 365.426 479.931 256 479.931c-59.999 0-114.486-23.599-154.689-62.019l-32.248 32.249c-13.652 13.652-36.994 3.983-36.994-15.324V313.789c0-11.969 9.702-21.671 21.671-21.671z" fill="#666" fill-rule="nonzero"/></svg>