<svg xmlns="http://www.w3.org/2000/svg" viewBox="0 0 500 500"><path d="M491.28 410.545l-46.593-59.929h1.647c9.492 0 18.199-5.334 22.434-13.884 4.236-8.471 3.373-18.668-2.353-26.277l-64.478-86.05c7.295-1.725 13.492-6.667 16.865-13.57 4.157-8.706 2.98-18.982-3.06-26.59L315.34 58.817a25.147 25.147 0 00-19.61-9.413 25.147 25.147 0 00-19.61 9.413L175.715 184.323c-6.04 7.53-7.217 17.884-3.06 26.591 3.295 6.903 9.57 11.844 16.865 13.57l-64.478 85.97c-5.726 7.61-6.589 17.807-2.353 26.278 4.236 8.55 12.943 13.884 22.434 13.884h1.647l-46.593 59.929a25.04 25.04 0 00-2.746 26.434c4.236 8.629 13.021 14.041 22.591 14.041h351.413c9.57 0 18.355-5.49 22.513-14.04 4.157-8.55 3.216-18.905-2.667-26.435zm-371.258 15.374l78.127-100.404h-53.026l94.129-125.504h-43.927L295.729 74.506l100.404 125.505h-43.927l94.128 125.504H393.31l78.126 100.404H120.022z" fill="#5f6368" fill-rule="nonzero"/><path d="M340.887 407.738l-68.915-79.506h27.627c19.646 0 30.314-22.409 17.804-37.22l-72.828-85.568h34.38c16.347 0 25.249-17.267 14.812-28.625L190.24 64.39c-7.674-8.365-21.949-8.365-29.623 0L57.17 176.819c-10.437 11.358-1.535 28.625 14.811 28.625h34.381l-72.905 85.568c-12.51 14.811-1.842 37.22 17.804 37.22h27.627L9.972 407.738c-14.58 16.806-2.916 43.282 18.956 43.282h292.927c21.948 0 33.536-26.553 19.032-43.282z" fill="#5f6368" fill-rule="nonzero"/></svg>